<?xml version='1.0' encoding='UTF-8' standalone='no'?>
<!-- Created with Fritzing (http://www.fritzing.org/) -->
<svg xmlns="http://www.w3.org/2000/svg" xmlns:svg="http://www.w3.org/2000/svg"  baseProfile="tiny" version="1.2" y="0in" height="2.22222in" x="0in" width="3.33333in" viewBox="0 0 240 160">
 <g transform="matrix(-1, 0, 0, 1, 240, 0)">
  <g partID="58160">
   <g  id="board">
    <rect  fill="none" y="0.288" height="159.424" x="0.288" fill-opacity="0.5" stroke="black" id="boardoutline" stroke-width="0.5" width="239.424"/>
   </g>
  </g>
  <g partID="58200">
   <g transform="translate(-43.8537,5.90363)">
    <g  id="copper0">
     <circle  fill="none" cx="215.998" stroke="black" cy="144" id="connector1pad" stroke-width="1.25" r="2"/>
     <circle  fill="none" cx="100.798" stroke="black" cy="144" id="connector257pad" stroke-width="1.25" r="2"/>
     <circle  fill="none" cx="223.196" stroke="black" cy="144" id="connector2pad" stroke-width="1.25" r="2"/>
     <circle  fill="none" cx="230.398" stroke="black" cy="144" id="connector3pad" stroke-width="1.25" r="2"/>
     <circle  fill="none" cx="237.597" stroke="black" cy="144" id="connector4pad" stroke-width="1.25" r="2"/>
     <circle  fill="none" cx="244.798" stroke="black" cy="144" id="connector5pad" stroke-width="1.25" r="2"/>
     <circle  fill="none" cx="266.398" stroke="black" cy="43.2" id="connector353pad" stroke-width="1.25" r="2"/>
     <circle  fill="none" cx="251.998" stroke="black" cy="144" id="connector6pad" stroke-width="1.25" r="2"/>
     <circle  fill="none" cx="259.196" stroke="black" cy="144" id="connector7pad" stroke-width="1.25" r="2"/>
     <circle  fill="none" cx="103.677" stroke="black" cy="7.2" id="connector241pad" stroke-width="1.25" r="2"/>
     <circle  fill="none" cx="143.998" stroke="black" cy="144" id="connector8pad" stroke-width="1.25" r="2"/>
     <circle  fill="none" cx="151.196" stroke="black" cy="144" id="connector9pad" stroke-width="1.25" r="2"/>
     <circle  fill="none" cx="158.398" stroke="black" cy="144" id="connector10pad" stroke-width="1.25" r="2"/>
     <circle  fill="none" cx="165.597" stroke="black" cy="144" id="connector11pad" stroke-width="1.25" r="2"/>
     <circle  fill="none" cx="266.398" stroke="black" cy="100.8" id="connector369pad" stroke-width="1.25" r="2"/>
     <circle  fill="none" cx="172.798" stroke="black" cy="144" id="connector12pad" stroke-width="1.25" r="2"/>
     <circle  fill="none" cx="179.998" stroke="black" cy="144" id="connector13pad" stroke-width="1.25" r="2"/>
     <circle  fill="none" cx="187.196" stroke="black" cy="144" id="connector14pad" stroke-width="1.25" r="2"/>
     <circle  fill="none" cx="194.398" stroke="black" cy="144" id="connector15pad" stroke-width="1.25" r="2"/>
     <circle  fill="none" cx="158.398" stroke="black" cy="7.2" id="connector265pad" stroke-width="1.25" r="2"/>
     <circle  fill="none" cx="266.398" stroke="black" cy="14.4" id="connector345pad" stroke-width="1.25" r="2"/>
     <circle  fill="none" cx="266.398" stroke="black" cy="72" id="connector361pad" stroke-width="1.25" r="2"/>
     <circle  fill="none" cx="266.398" stroke="black" cy="129.6" id="connector377pad" stroke-width="1.25" r="2"/>
     <circle  fill="none" cx="74.878" stroke="black" cy="7.2" id="connector237pad" stroke-width="1.25" r="2"/>
     <circle  fill="none" cx="129.597" stroke="black" cy="144" id="connector261pad" stroke-width="1.25" r="2"/>
     <circle  fill="none" cx="129.597" stroke="black" cy="7.2" id="connector269pad" stroke-width="1.25" r="2"/>
     <circle  fill="none" cx="266.398" stroke="black" cy="28.8" id="connector349pad" stroke-width="1.25" r="2"/>
     <circle  fill="none" cx="266.398" stroke="black" cy="57.6" id="connector357pad" stroke-width="1.25" r="2"/>
     <circle  fill="none" cx="266.398" stroke="black" cy="86.4" id="connector365pad" stroke-width="1.25" r="2"/>
     <circle  fill="none" cx="244.798" stroke="black" cy="7.2" id="connector46pad" stroke-width="1.25" r="2"/>
     <circle  fill="none" cx="266.398" stroke="black" cy="115.2" id="connector373pad" stroke-width="1.25" r="2"/>
     <circle  fill="none" cx="237.597" stroke="black" cy="7.2" id="connector47pad" stroke-width="1.25" r="2"/>
     <circle  fill="none" cx="230.398" stroke="black" cy="7.2" id="connector48pad" stroke-width="1.25" r="2"/>
     <circle  fill="none" cx="223.196" stroke="black" cy="7.2" id="connector49pad" stroke-width="1.25" r="2"/>
     <circle  fill="none" cx="215.998" stroke="black" cy="7.2" id="connector50pad" stroke-width="1.25" r="2"/>
     <circle  fill="none" cx="208.798" stroke="black" cy="7.2" id="connector51pad" stroke-width="1.25" r="2"/>
     <circle  fill="none" cx="201.597" stroke="black" cy="7.2" id="connector52pad" stroke-width="1.25" r="2"/>
     <circle  fill="none" cx="194.398" stroke="black" cy="7.2" id="connector53pad" stroke-width="1.25" r="2"/>
     <circle  fill="none" cx="60.477" stroke="black" cy="7.2" id="connector235pad" stroke-width="1.25" r="2"/>
     <circle  fill="none" cx="89.277" stroke="black" cy="7.2" id="connector239pad" stroke-width="1.25" r="2"/>
     <circle  fill="none" cx="118.077" stroke="black" cy="7.2" id="connector243pad" stroke-width="1.25" r="2"/>
     <circle  fill="none" cx="86.397" stroke="black" cy="144" id="connector255pad" stroke-width="1.25" r="2"/>
     <circle  fill="none" cx="115.197" stroke="black" cy="144" id="connector259pad" stroke-width="1.25" r="2"/>
     <circle  fill="none" cx="172.798" stroke="black" cy="7.2" id="connector263pad" stroke-width="1.25" r="2"/>
     <circle  fill="none" cx="143.998" stroke="black" cy="7.2" id="connector267pad" stroke-width="1.25" r="2"/>
     <circle  fill="none" cx="266.398" stroke="black" cy="7.2" id="connector343pad" stroke-width="1.25" r="2"/>
     <circle  fill="none" cx="266.398" stroke="black" cy="21.6" id="connector347pad" stroke-width="1.25" r="2"/>
     <circle  fill="none" cx="266.398" stroke="black" cy="36" id="connector351pad" stroke-width="1.25" r="2"/>
     <circle  fill="none" cx="266.398" stroke="black" cy="50.4" id="connector355pad" stroke-width="1.25" r="2"/>
     <circle  fill="none" cx="266.398" stroke="black" cy="64.8" id="connector359pad" stroke-width="1.25" r="2"/>
     <circle  fill="none" cx="266.398" stroke="black" cy="79.2" id="connector363pad" stroke-width="1.25" r="2"/>
     <circle  fill="none" cx="266.398" stroke="black" cy="93.6" id="connector367pad" stroke-width="1.25" r="2"/>
     <circle  fill="none" cx="266.398" stroke="black" cy="108" id="connector371pad" stroke-width="1.25" r="2"/>
     <circle  fill="none" cx="266.398" stroke="black" cy="122.4" id="connector375pad" stroke-width="1.25" r="2"/>
     <circle  fill="none" cx="53.276" stroke="black" cy="7.2" id="connector234pad" stroke-width="1.25" r="2"/>
     <circle  fill="none" cx="67.677" stroke="black" cy="7.2" id="connector236pad" stroke-width="1.25" r="2"/>
     <circle  fill="none" cx="82.077" stroke="black" cy="7.2" id="connector238pad" stroke-width="1.25" r="2"/>
     <circle  fill="none" cx="96.477" stroke="black" cy="7.2" id="connector240pad" stroke-width="1.25" r="2"/>
     <circle  fill="none" cx="110.878" stroke="black" cy="7.2" id="connector242pad" stroke-width="1.25" r="2"/>
     <circle  fill="none" cx="79.197" stroke="black" cy="144" id="connector254pad" stroke-width="1.25" r="2"/>
     <circle  fill="none" cx="93.597" stroke="black" cy="144" id="connector256pad" stroke-width="1.25" r="2"/>
     <circle  fill="none" cx="107.998" stroke="black" cy="144" id="connector258pad" stroke-width="1.25" r="2"/>
     <circle  fill="none" cx="122.397" stroke="black" cy="144" id="connector260pad" stroke-width="1.25" r="2"/>
     <circle  fill="none" cx="179.998" stroke="black" cy="7.2" id="connector262pad" stroke-width="1.25" r="2"/>
     <circle  fill="none" cx="165.597" stroke="black" cy="7.2" id="connector264pad" stroke-width="1.25" r="2"/>
     <circle  fill="none" cx="151.196" stroke="black" cy="7.2" id="connector266pad" stroke-width="1.25" r="2"/>
     <circle  fill="none" cx="136.798" stroke="black" cy="7.2" id="connector268pad" stroke-width="1.25" r="2"/>
     <circle  fill="none" cx="273.597" stroke="black" cy="7.2" id="connector344pad" stroke-width="1.25" r="2"/>
     <circle  fill="none" cx="273.597" stroke="black" cy="14.4" id="connector346pad" stroke-width="1.25" r="2"/>
     <circle  fill="none" cx="273.597" stroke="black" cy="21.6" id="connector348pad" stroke-width="1.25" r="2"/>
     <circle  fill="none" cx="273.597" stroke="black" cy="28.8" id="connector350pad" stroke-width="1.25" r="2"/>
     <circle  fill="none" cx="273.597" stroke="black" cy="36" id="connector352pad" stroke-width="1.25" r="2"/>
     <circle  fill="none" cx="273.597" stroke="black" cy="43.2" id="connector354pad" stroke-width="1.25" r="2"/>
     <circle  fill="none" cx="273.597" stroke="black" cy="50.4" id="connector356pad" stroke-width="1.25" r="2"/>
     <circle  fill="none" cx="273.597" stroke="black" cy="57.6" id="connector358pad" stroke-width="1.25" r="2"/>
     <circle  fill="none" cx="273.597" stroke="black" cy="64.8" id="connector360pad" stroke-width="1.25" r="2"/>
     <circle  fill="none" cx="273.597" stroke="black" cy="72" id="connector362pad" stroke-width="1.25" r="2"/>
     <circle  fill="none" cx="273.597" stroke="black" cy="79.2" id="connector364pad" stroke-width="1.25" r="2"/>
     <circle  fill="none" cx="273.597" stroke="black" cy="86.4" id="connector366pad" stroke-width="1.25" r="2"/>
     <circle  fill="none" cx="273.597" stroke="black" cy="93.6" id="connector368pad" stroke-width="1.25" r="2"/>
     <circle  fill="none" cx="273.597" stroke="black" cy="100.8" id="connector370pad" stroke-width="1.25" r="2"/>
     <circle  fill="none" cx="273.597" stroke="black" cy="108" id="connector372pad" stroke-width="1.25" r="2"/>
     <circle  fill="none" cx="273.597" stroke="black" cy="115.2" id="connector374pad" stroke-width="1.25" r="2"/>
     <circle  fill="none" cx="273.597" stroke="black" cy="122.4" id="connector376pad" stroke-width="1.25" r="2"/>
     <circle  fill="none" cx="273.597" stroke="black" cy="129.6" id="connector378pad" stroke-width="1.25" r="2"/>
     <circle  fill="none" cx="208.798" stroke="black" cy="144" id="connector0pad" stroke-width="1.25" r="2"/>
    </g>
   </g>
  </g>
  <g partID="854517570">
   <g transform="translate(197.097,79.4941)">
    <g transform="matrix(-1,0,0,-1,0,0)">
     <g  id="copper0" gorn="0.3.0">
      <rect  y="52.2" fill="none" height="3.6" x="37.8" stroke="black" id="square" gorn="0.3.0.0" width="3.6" stroke-width="1.44"/>
      <rect  y="9" fill="none" height="3.6" x="37.8" stroke="black" id="square" gorn="0.3.0.1" width="3.6" stroke-width="1.44"/>
      <circle  fill="none" cx="3.6" cy="3.6" stroke="black" id="connector0pad" gorn="0.3.0.2" stroke-width="1.44" r="1.8"/>
      <circle  fill="none" cx="39.6" cy="3.6" stroke="black" id="connector15pad" gorn="0.3.0.3" stroke-width="1.44" r="1.8"/>
      <circle  fill="none" cx="3.6" cy="10.8" stroke="black" id="connector1pad" gorn="0.3.0.4" stroke-width="1.44" r="1.8"/>
      <circle  fill="none" cx="39.6" cy="10.8" stroke="black" id="connector14pad" gorn="0.3.0.5" stroke-width="1.44" r="1.8"/>
      <circle  fill="none" cx="3.6" cy="18" stroke="black" id="connector2pad" gorn="0.3.0.6" stroke-width="1.44" r="1.8"/>
      <circle  fill="none" cx="39.6" cy="18" stroke="black" id="connector13pad" gorn="0.3.0.7" stroke-width="1.44" r="1.8"/>
      <circle  fill="none" cx="3.6" cy="25.2" stroke="black" id="connector3pad" gorn="0.3.0.8" stroke-width="1.44" r="1.8"/>
      <circle  fill="none" cx="39.6" cy="25.2" stroke="black" id="connector12pad" gorn="0.3.0.9" stroke-width="1.44" r="1.8"/>
      <circle  fill="none" cx="3.6" cy="32.4" stroke="black" id="connector4pad" gorn="0.3.0.10" stroke-width="1.44" r="1.8"/>
      <circle  fill="none" cx="39.6" cy="32.4" stroke="black" id="connector11pad" gorn="0.3.0.11" stroke-width="1.44" r="1.8"/>
      <circle  fill="none" cx="3.6" cy="39.6" stroke="black" id="connector5pad" gorn="0.3.0.12" stroke-width="1.44" r="1.8"/>
      <circle  fill="none" cx="39.6" cy="39.6" stroke="black" id="connector10pad" gorn="0.3.0.13" stroke-width="1.44" r="1.8"/>
      <circle  fill="none" cx="3.6" cy="46.8" stroke="black" id="connector6pad" gorn="0.3.0.14" stroke-width="1.44" r="1.8"/>
      <circle  fill="none" cx="39.6" cy="46.8" stroke="black" id="connector9pad" gorn="0.3.0.15" stroke-width="1.44" r="1.8"/>
      <circle  fill="none" cx="3.6" cy="54" stroke="black" id="connector7pad" gorn="0.3.0.16" stroke-width="1.44" r="1.8"/>
      <circle  fill="none" cx="39.6" cy="54" stroke="black" id="connector8pad" gorn="0.3.0.17" stroke-width="1.44" r="1.8"/>
     </g>
    </g>
   </g>
  </g>
  <g partID="854517600">
   <g transform="translate(197.344,139.104)">
    <g transform="matrix(-1,0,0,-1,0,0)">
     <g  id="copper0" gorn="0.3.0">
      <rect  y="52.2" fill="none" height="3.6" x="37.8" stroke="black" id="square" gorn="0.3.0.0" width="3.6" stroke-width="1.44"/>
      <rect  y="9" fill="none" height="3.6" x="37.8" stroke="black" id="square" gorn="0.3.0.1" width="3.6" stroke-width="1.44"/>
      <circle  fill="none" cx="3.6" cy="3.6" stroke="black" id="connector0pad" gorn="0.3.0.2" stroke-width="1.44" r="1.8"/>
      <circle  fill="none" cx="39.6" cy="3.6" stroke="black" id="connector15pad" gorn="0.3.0.3" stroke-width="1.44" r="1.8"/>
      <circle  fill="none" cx="3.6" cy="10.8" stroke="black" id="connector1pad" gorn="0.3.0.4" stroke-width="1.44" r="1.8"/>
      <circle  fill="none" cx="39.6" cy="10.8" stroke="black" id="connector14pad" gorn="0.3.0.5" stroke-width="1.44" r="1.8"/>
      <circle  fill="none" cx="3.6" cy="18" stroke="black" id="connector2pad" gorn="0.3.0.6" stroke-width="1.44" r="1.8"/>
      <circle  fill="none" cx="39.6" cy="18" stroke="black" id="connector13pad" gorn="0.3.0.7" stroke-width="1.44" r="1.8"/>
      <circle  fill="none" cx="3.6" cy="25.2" stroke="black" id="connector3pad" gorn="0.3.0.8" stroke-width="1.44" r="1.8"/>
      <circle  fill="none" cx="39.6" cy="25.2" stroke="black" id="connector12pad" gorn="0.3.0.9" stroke-width="1.44" r="1.8"/>
      <circle  fill="none" cx="3.6" cy="32.4" stroke="black" id="connector4pad" gorn="0.3.0.10" stroke-width="1.44" r="1.8"/>
      <circle  fill="none" cx="39.6" cy="32.4" stroke="black" id="connector11pad" gorn="0.3.0.11" stroke-width="1.44" r="1.8"/>
      <circle  fill="none" cx="3.6" cy="39.6" stroke="black" id="connector5pad" gorn="0.3.0.12" stroke-width="1.44" r="1.8"/>
      <circle  fill="none" cx="39.6" cy="39.6" stroke="black" id="connector10pad" gorn="0.3.0.13" stroke-width="1.44" r="1.8"/>
      <circle  fill="none" cx="3.6" cy="46.8" stroke="black" id="connector6pad" gorn="0.3.0.14" stroke-width="1.44" r="1.8"/>
      <circle  fill="none" cx="39.6" cy="46.8" stroke="black" id="connector9pad" gorn="0.3.0.15" stroke-width="1.44" r="1.8"/>
      <circle  fill="none" cx="3.6" cy="54" stroke="black" id="connector7pad" gorn="0.3.0.16" stroke-width="1.44" r="1.8"/>
      <circle  fill="none" cx="39.6" cy="54" stroke="black" id="connector8pad" gorn="0.3.0.17" stroke-width="1.44" r="1.8"/>
     </g>
    </g>
   </g>
  </g>
  <g partID="854550900">
   <g transform="translate(143.865,64.5969)">
    <g transform="matrix(0,1,-1,0,0,0)">
     <g  id="copper0">
      <rect  y="5.58" fill="none" height="3.96" x="1.98" stroke="black" id="rect11" width="3.96" stroke-width="1.44"/>
      <circle  fill="none" cx="3.96" cy="7.56" stroke="black" id="connector0pin" stroke-width="1.44" r="1.98"/>
      <circle  fill="none" cx="11.16" cy="7.56" stroke="black" id="connector1pin" stroke-width="1.44" r="1.98"/>
     </g>
    </g>
   </g>
  </g>
  <g partID="854551010">
   <g transform="translate(125.869,124.299)">
    <g transform="matrix(0,1,-1,0,0,0)">
     <g  id="copper0">
      <rect  y="5.58" fill="none" height="3.96" x="1.98" stroke="black" id="rect11" width="3.96" stroke-width="1.44"/>
      <circle  fill="none" cx="3.96" cy="7.56" stroke="black" id="connector0pin" stroke-width="1.44" r="1.98"/>
      <circle  fill="none" cx="11.16" cy="7.56" stroke="black" id="connector1pin" stroke-width="1.44" r="1.98"/>
     </g>
    </g>
   </g>
  </g>
  <g partID="854552430">
   <g transform="translate(90.8034,83.2377)">
    <g transform="matrix(0,-1,1,0,0,0)">
     <g  id="copper0">
      <path  fill="none" stroke-opacity="1" stroke="black" style="stroke-linecap:round;stroke-linejoin:round;stroke-miterlimit:4;stroke-dasharray:none;stroke-dashoffset:0;display:inline" id="connector1pad" stroke-width="1.44" d="m9,3.60001a1.8,1.8,0,0,1,-3.6,0,1.8,1.8,0,1,1,3.6,0z"/>
      <path  fill="none" stroke-opacity="1" stroke="black" style="stroke-linecap:round;stroke-linejoin:round;stroke-miterlimit:4;stroke-dasharray:none;stroke-dashoffset:0;display:inline" id="connector2pad" stroke-width="1.44" d="m16.2,3.60001a1.8,1.8,0,0,1,-3.6,0,1.8,1.8,0,1,1,3.6,0z"/>
     </g>
    </g>
   </g>
  </g>
  <g partID="854556270">
   <g transform="translate(99.5746,101.935)">
    <g  id="copper0">
     <circle  fill="none" cx="4.752" cy="4.752" stroke="black" id="connector0pad" stroke-width="1.44" r="1.98"/>
     <circle  fill="none" cx="18.7266" cy="4.752" stroke="black" id="connector1pad" stroke-width="1.44" r="1.98"/>
    </g>
   </g>
  </g>
  <g partID="854561990">
   <g transform="translate(146.807,81.9873)">
    <g transform="matrix(0,1,-1,0,0,0)">
     <g  id="copper0">
      <circle  fill="none" cx="6.304" stroke="black" cy="9.926" id="connector0pad" stroke-width="0.9" r="2.291"/>
      <path  fill="black" stroke-width="0" d="M3.424,7.046l5.76,0l0,5.761l-5.76,0L3.424,7.046zM4.603,9.926c0,0.939,0.762,1.7,1.701,1.7c0.939,0,1.7,-0.761,1.7,-1.7l0,0c0,-0.939,-0.761,-1.701,-1.7,-1.701C5.365,8.225,4.603,8.987,4.603,9.926z"/>
      <circle  fill="none" cx="16.224" stroke="black" cy="9.926" id="connector1pad" stroke-width="0.9" r="2.291"/>
      <circle  fill="none" cx="26.146" stroke="black" cy="9.926" id="connector2pad" stroke-width="0.9" r="2.291"/>
      <circle  fill="none" cx="36.068" stroke="black" cy="9.926" id="connector3pad" stroke-width="0.9" r="2.291"/>
     </g>
    </g>
   </g>
  </g>
  <g partID="854561370">
   <g transform="translate(144.464,18.7946)">
    <g transform="matrix(0,1,-1,0,0,0)">
     <g  id="copper0">
      <circle  fill="none" cx="6.304" stroke="black" cy="9.926" id="connector0pad" stroke-width="0.9" r="2.291"/>
      <path  fill="black" stroke-width="0" d="M3.424,7.046l5.76,0l0,5.761l-5.76,0L3.424,7.046zM4.603,9.926c0,0.939,0.762,1.7,1.701,1.7c0.939,0,1.7,-0.761,1.7,-1.7l0,0c0,-0.939,-0.761,-1.701,-1.7,-1.701C5.365,8.225,4.603,8.987,4.603,9.926z"/>
      <circle  fill="none" cx="16.224" stroke="black" cy="9.926" id="connector1pad" stroke-width="0.9" r="2.291"/>
      <circle  fill="none" cx="26.146" stroke="black" cy="9.926" id="connector2pad" stroke-width="0.9" r="2.291"/>
      <circle  fill="none" cx="36.068" stroke="black" cy="9.926" id="connector3pad" stroke-width="0.9" r="2.291"/>
     </g>
    </g>
   </g>
  </g>
  <g partID="854550500">
   <line y1="31.8378" stroke-linecap="round" stroke="black" x1="203.22" y2="30.6338" x2="215.46" stroke-width="1.728"/>
  </g>
  <g partID="854558830">
   <line y1="30.6338" stroke-linecap="round" stroke="black" x1="215.46" y2="28.3827" x2="220.555" stroke-width="1.728"/>
  </g>
  <g partID="854547820">
   <line y1="32.5292" stroke-linecap="round" stroke="black" x1="195.37" y2="31.8378" x2="203.22" stroke-width="1.728"/>
  </g>
  <g partID="854547880">
   <line y1="101.384" stroke-linecap="round" stroke="black" x1="193.744" y2="104.824" x2="193.744" stroke-width="1.728"/>
  </g>
  <g partID="854547960">
   <line y1="41.7741" stroke-linecap="round" stroke="black" x1="193.497" y2="45.2141" x2="193.497" stroke-width="1.728"/>
  </g>
  <g partID="854550550">
   <line y1="25.4164" stroke-linecap="round" stroke="black" x1="215.862" y2="20.1991" x2="215.862" stroke-width="1.728"/>
  </g>
  <g partID="854558780">
   <line y1="20.1991" stroke-linecap="round" stroke="black" x1="215.862" y2="20.2696" x2="220.37" stroke-width="1.728"/>
  </g>
  <g partID="854548020">
   <line y1="25.4876" stroke-linecap="round" stroke="black" x1="195.377" y2="25.4164" x2="215.862" stroke-width="1.728"/>
  </g>
  <g partID="854550600">
   <line y1="99.5149" stroke-linecap="round" stroke="black" x1="203.623" y2="99.5049" x2="220.369" stroke-width="1.728"/>
  </g>
  <g partID="854548080">
   <line y1="93.4121" stroke-linecap="round" stroke="black" x1="195.263" y2="99.5149" x2="203.623" stroke-width="1.728"/>
  </g>
  <g partID="854550800">
   <line y1="121.018" stroke-linecap="round" stroke="black" x1="209.061" y2="121.09" x2="220.369" stroke-width="1.728"/>
  </g>
  <g partID="854548180">
   <line y1="127.496" stroke-linecap="round" stroke="black" x1="195.442" y2="121.018" x2="209.061" stroke-width="1.728"/>
  </g>
  <g partID="854550750">
   <line y1="112.862" stroke-linecap="round" stroke="black" x1="207.825" y2="113.75" x2="220.375" stroke-width="1.728"/>
  </g>
  <g partID="854548300">
   <line y1="120.154" stroke-linecap="round" stroke="black" x1="195.367" y2="112.862" x2="207.825" stroke-width="1.728"/>
  </g>
  <g partID="854548400">
   <line y1="134.722" stroke-linecap="round" stroke="black" x1="195.454" y2="127.939" x2="210.297" stroke-width="1.728"/>
  </g>
  <g partID="854550850">
   <line y1="127.939" stroke-linecap="round" stroke="black" x1="210.297" y2="128.239" x2="220.37" stroke-width="1.728"/>
  </g>
  <g partID="854548540">
   <line y1="112.764" stroke-linecap="round" stroke="black" x1="195.24" y2="106.188" x2="203.87" stroke-width="1.728"/>
  </g>
  <g partID="854550700">
   <line y1="106.188" stroke-linecap="round" stroke="black" x1="203.87" y2="106.644" x2="220.37" stroke-width="1.728"/>
  </g>
  <g partID="854550650">
   <line y1="91.3585" stroke-linecap="round" stroke="black" x1="204.859" y2="92.1876" x2="220.373" stroke-width="1.728"/>
  </g>
  <g partID="854548640">
   <line y1="86.0256" stroke-linecap="round" stroke="black" x1="195.383" y2="91.3585" x2="204.859" stroke-width="1.728"/>
  </g>
  <g partID="854548780">
   <line y1="68.5328" stroke-linecap="round" stroke="black" x1="195.37" y2="67.6306" x2="205.848" stroke-width="1.728"/>
  </g>
  <g partID="854550250">
   <line y1="51.5648" stroke-linecap="round" stroke="black" x1="211.532" y2="49.578" x2="220.422" stroke-width="1.728"/>
  </g>
  <g partID="854548800">
   <line y1="67.6306" stroke-linecap="round" stroke="black" x1="205.848" y2="51.5648" x2="211.532" stroke-width="1.728"/>
  </g>
  <g partID="854550200">
   <line y1="59.7213" stroke-linecap="round" stroke="black" x1="214.746" y2="57.1766" x2="220.552" stroke-width="1.728"/>
  </g>
  <g partID="854550150">
   <line y1="73.3154" stroke-linecap="round" stroke="black" x1="211.532" y2="59.7213" x2="214.746" stroke-width="1.728"/>
  </g>
  <g partID="854548960">
   <line y1="75.628" stroke-linecap="round" stroke="black" x1="195.358" y2="73.3154" x2="211.532" stroke-width="1.728"/>
  </g>
  <g partID="854550350">
   <line y1="45.1385" stroke-linecap="round" stroke="black" x1="200.657" y2="37.4764" x2="205.106" stroke-width="1.728"/>
  </g>
  <g partID="854550300">
   <line y1="37.4764" stroke-linecap="round" stroke="black" x1="205.106" y2="35.0452" x2="220.396" stroke-width="1.728"/>
  </g>
  <g partID="854549200">
   <line y1="52.8132" stroke-linecap="round" stroke="black" x1="194.655" y2="45.1385" x2="200.657" stroke-width="1.728"/>
  </g>
  <g partID="854550450">
   <line y1="44.6442" stroke-linecap="round" stroke="black" x1="209.061" y2="42.3368" x2="220.413" stroke-width="1.728"/>
  </g>
  <g partID="854549420">
   <line y1="61.0565" stroke-linecap="round" stroke="black" x1="195.326" y2="59.7213" x2="200.904" stroke-width="1.728"/>
  </g>
  <g partID="854550400">
   <line y1="59.7213" stroke-linecap="round" stroke="black" x1="200.904" y2="44.6442" x2="209.061" stroke-width="1.728"/>
  </g>
  <g partID="854554080">
   <line y1="75.7702" stroke-linecap="round" stroke="black" x1="138.365" y2="75.8819" x2="155.617" stroke-width="1.728"/>
  </g>
  <g partID="854554240">
   <line y1="135.461" stroke-linecap="round" stroke="black" x1="120.369" y2="135.502" x2="155.864" stroke-width="1.728"/>
  </g>
  <g partID="854554380">
   <line y1="128.261" stroke-linecap="round" stroke="black" x1="120.369" y2="128.302" x2="155.864" stroke-width="1.728"/>
  </g>
  <g partID="854554540">
   <line y1="68.5702" stroke-linecap="round" stroke="black" x1="138.365" y2="68.6819" x2="155.617" stroke-width="1.728"/>
  </g>
  <g partID="854560410">
   <line y1="76.3859" stroke-linecap="round" stroke="black" x1="104.09" y2="76.1052" x2="96.2822" stroke-width="1.728"/>
  </g>
  <g partID="854556770">
   <line y1="104.627" stroke-linecap="round" stroke="black" x1="104.311" y2="76.3859" x2="104.09" stroke-width="1.728"/>
  </g>
  <g partID="854557760">
   <line y1="92.038" stroke-linecap="round" stroke="black" x1="165.293" y2="143.007" x2="165.895" stroke-width="1.728"/>
  </g>
  <g partID="854557690">
   <line y1="142.606" stroke-linecap="round" stroke="black" x1="63.9564" y2="147.729" x2="64.0884" stroke-width="1.728"/>
  </g>
  <g partID="854557620">
   <line y1="143.007" stroke-linecap="round" stroke="black" x1="165.895" y2="142.606" x2="63.9564" stroke-width="1.728"/>
  </g>
  <g partID="854557550">
   <line y1="92.2375" stroke-linecap="round" stroke="black" x1="159.623" y2="92.038" x2="165.293" stroke-width="1.728"/>
  </g>
  <g partID="854558200">
   <line y1="143.208" stroke-linecap="round" stroke="black" x1="170.711" y2="144.211" x2="229.908" stroke-width="1.728"/>
  </g>
  <g partID="854558270">
   <line y1="144.211" stroke-linecap="round" stroke="black" x1="229.908" y2="137.678" x2="229.785" stroke-width="1.728"/>
  </g>
  <g partID="854558130">
   <line y1="85.0146" stroke-linecap="round" stroke="black" x1="170.711" y2="143.208" x2="170.711" stroke-width="1.728"/>
  </g>
  <g partID="854558060">
   <line y1="85.0907" stroke-linecap="round" stroke="black" x1="159.624" y2="85.0146" x2="170.711" stroke-width="1.728"/>
  </g>
  <g partID="854558670">
   <line y1="139.797" stroke-linecap="round" stroke="black" x1="222.684" y2="139.395" x2="175.327" stroke-width="1.728"/>
  </g>
  <g partID="854558560">
   <line y1="139.395" stroke-linecap="round" stroke="black" x1="175.327" y2="25.4164" x2="174.725" stroke-width="1.728"/>
  </g>
  <g partID="854558450">
   <line y1="25.4164" stroke-linecap="round" stroke="black" x1="174.725" y2="25.4856" x2="159.377" stroke-width="1.728"/>
  </g>
  <g partID="854558340">
   <line y1="137.677" stroke-linecap="round" stroke="black" x1="222.615" y2="139.797" x2="222.684" stroke-width="1.728"/>
  </g>
  <g partID="854559320">
   <line y1="12.975" stroke-linecap="round" stroke="black" x1="211.648" y2="13.078" x2="220.37" stroke-width="1.728"/>
  </g>
  <g partID="854559210">
   <line y1="19.7977" stroke-linecap="round" stroke="black" x1="209.641" y2="12.975" x2="211.648" stroke-width="1.728"/>
  </g>
  <g partID="854558880">
   <line y1="31.9513" stroke-linecap="round" stroke="black" x1="155.77" y2="29.2291" x2="149.441" stroke-width="1.728"/>
  </g>
  <g partID="854558990">
   <line y1="29.2291" stroke-linecap="round" stroke="black" x1="149.441" y2="19.7977" x2="148.839" stroke-width="1.728"/>
  </g>
  <g partID="854559100">
   <line y1="19.7977" stroke-linecap="round" stroke="black" x1="148.839" y2="19.7977" x2="209.641" stroke-width="1.728"/>
  </g>
  <g partID="854562380">
   <line y1="68.9612" stroke-linecap="round" stroke="black" x1="118.337" y2="68.6032" x2="134.245" stroke-width="1.728"/>
  </g>
  <g partID="854562270">
   <line y1="58.9279" stroke-linecap="round" stroke="black" x1="118.137" y2="68.9612" x2="118.337" stroke-width="1.728"/>
  </g>
  <g partID="854562160">
   <line y1="58.9279" stroke-linecap="round" stroke="black" x1="94.4579" y2="58.9279" x2="118.137" stroke-width="1.728"/>
  </g>
  <g partID="854559530">
   <line y1="66.9577" stroke-linecap="round" stroke="black" x1="94.4137" y2="58.9279" x2="94.4579" stroke-width="1.728"/>
  </g>
  <g partID="854559870">
   <line y1="134.981" stroke-linecap="round" stroke="black" x1="94.2572" y2="77.9177" x2="94.3988" stroke-width="1.728"/>
  </g>
  <g partID="854559760">
   <line y1="135.418" stroke-linecap="round" stroke="black" x1="116.25" y2="134.981" x2="94.2572" stroke-width="1.728"/>
  </g>
  <g partID="854562050">
   <line y1="116.921" stroke-linecap="round" stroke="black" x1="110.712" y2="68.9612" x2="110.913" stroke-width="1.728"/>
  </g>
  <g partID="854560300">
   <line y1="117.121" stroke-linecap="round" stroke="black" x1="118.137" y2="116.921" x2="110.712" stroke-width="1.728"/>
  </g>
  <g partID="854560190">
   <line y1="68.9612" stroke-linecap="round" stroke="black" x1="110.913" y2="68.8518" x2="96.2834" stroke-width="1.728"/>
  </g>
  <g partID="854560080">
   <line y1="126.199" stroke-linecap="round" stroke="black" x1="118.277" y2="117.121" x2="118.137" stroke-width="1.728"/>
  </g>
  <g partID="854560620">
   <line y1="104.627" stroke-linecap="round" stroke="black" x1="118.29" y2="75.7839" x2="118.137" stroke-width="1.728"/>
  </g>
  <g partID="854560730">
   <line y1="75.7839" stroke-linecap="round" stroke="black" x1="118.137" y2="75.7599" x2="134.245" stroke-width="1.728"/>
  </g>
  <g partID="854561920">
   <line y1="38.8611" stroke-linecap="round" stroke="black" x1="148.437" y2="39.6811" x2="155.629" stroke-width="1.728"/>
  </g>
  <g partID="854561430">
   <line y1="26.9569" stroke-linecap="round" stroke="black" x1="136.415" y2="38.8611" x2="148.437" stroke-width="1.728"/>
  </g>
  <g partID="854561850">
   <line y1="46.2858" stroke-linecap="round" stroke="black" x1="147.835" y2="46.9374" x2="155.624" stroke-width="1.728"/>
  </g>
  <g partID="854561500">
   <line y1="36.726" stroke-linecap="round" stroke="black" x1="136.553" y2="46.2858" x2="147.835" stroke-width="1.728"/>
  </g>
  <g partID="854561780">
   <line y1="54.1118" stroke-linecap="round" stroke="black" x1="147.434" y2="54.2601" x2="155.618" stroke-width="1.728"/>
  </g>
  <g partID="854561570">
   <line y1="46.4713" stroke-linecap="round" stroke="black" x1="136.691" y2="54.1118" x2="147.434" stroke-width="1.728"/>
  </g>
  <g partID="854561710">
   <line y1="61.1352" stroke-linecap="round" stroke="black" x1="146.23" y2="61.4342" x2="155.618" stroke-width="1.728"/>
  </g>
  <g partID="854561640">
   <line y1="56.1112" stroke-linecap="round" stroke="black" x1="136.866" y2="61.1352" x2="146.23" stroke-width="1.728"/>
  </g>
  <g partID="854562680">
   <line y1="98.6137" stroke-linecap="round" stroke="black" x1="156.088" y2="89.5415" x2="139.207" stroke-width="1.728"/>
  </g>
  <g partID="854562750">
   <line y1="105.995" stroke-linecap="round" stroke="black" x1="156.003" y2="99.2069" x2="139.327" stroke-width="1.728"/>
  </g>
  <g partID="854562820">
   <line y1="113.402" stroke-linecap="round" stroke="black" x1="155.932" y2="108.837" x2="139.426" stroke-width="1.728"/>
  </g>
  <g partID="854562890">
   <line y1="120.832" stroke-linecap="round" stroke="black" x1="155.884" y2="118.437" x2="139.494" stroke-width="1.728"/>
  </g>
 </g>
</svg>
