<?xml version="1.0" encoding="utf-8"?>
<!-- Generator: Adobe Illustrator 23.0.1, SVG Export Plug-In . SVG Version: 6.00 Build 0)  -->
<svg version="1.0" id="Layer_1" xmlns:svg="http://www.w3.org/2000/svg"
	 xmlns="http://www.w3.org/2000/svg" xmlns:xlink="http://www.w3.org/1999/xlink" x="0px" y="0px" viewBox="0 0 240 160"
	 style="enable-background:new 0 0 240 160;" xml:space="preserve">
<path d="M-1-1V161H241V-1H-1z M238.5,158.5H1.5V1.5h236.9V158.5z"/>
<circle cx="67.9" cy="149.9" r="3.3"/>
<circle cx="183.1" cy="149.9" r="3.3"/>
<circle cx="60.7" cy="149.9" r="3.3"/>
<circle cx="53.5" cy="149.9" r="3.3"/>
<circle cx="46.3" cy="149.9" r="3.3"/>
<circle cx="39.1" cy="149.9" r="3.3"/>
<path d="M17.5,52.4c1.1,0,2.1-0.5,2.6-1.4l7.4,1.7L33,68c0,0,0,0,0,0l0,0c0,0.1,0.1,0.3,0.2,0.4c0,0,0.1,0,0.1,0.1
	c0.1,0.1,0.2,0.2,0.3,0.2c0,0,0.1,0,0.1,0.1c0.1,0,0.2,0.1,0.3,0.1c0,0,0.1,0,0.1,0l9.6,0.8c0.4,1.2,1.5,2,2.9,2
	c1.7,0,3.1-1.4,3.1-3c0-1.7-1.4-3.1-3.1-3.1c-1.1,0-2.1,0.6-2.6,1.6l-8.8-0.8l-5.4-15.3c0,0,0-0.1-0.1-0.1c0-0.1-0.1-0.1-0.1-0.2
	c0-0.1-0.1-0.1-0.2-0.2c-0.1-0.1-0.1-0.1-0.2-0.1c-0.1,0-0.2-0.1-0.2-0.1c0,0-0.1,0-0.1-0.1l-8.1-1.8c-0.3-1.5-1.6-2.7-3.2-2.7
	c-1.8,0-3.3,1.5-3.3,3.3S15.7,52.4,17.5,52.4z"/>
<circle cx="31.9" cy="149.9" r="3.3"/>
<circle cx="24.7" cy="149.9" r="3.3"/>
<circle cx="180.2" cy="13.1" r="3.3"/>
<circle cx="139.9" cy="149.9" r="3.3"/>
<circle cx="132.7" cy="149.9" r="3.3"/>
<circle cx="125.5" cy="149.9" r="3.3"/>
<circle cx="118.3" cy="149.9" r="3.3"/>
<path d="M17.5,110c1.4,0,2.6-0.9,3-2.1l15.2-0.4l7.6,5.8c-0.1,0.2-0.1,0.5-0.1,0.7c0,1.7,1.4,3,3,3c1.7,0,3.1-1.4,3.1-3
	c0-1.7-1.4-3.1-3.1-3.1c-0.5,0-1,0.1-1.4,0.4l-7.9-6c-0.1-0.1-0.1-0.1-0.2-0.1c0,0-0.1,0-0.1-0.1c-0.1,0-0.2-0.1-0.3-0.1
	c0,0-0.1,0-0.1,0l-15.7,0.4c-0.5-1.1-1.6-1.9-3-1.9c-1.8,0-3.3,1.5-3.3,3.3S15.7,110,17.5,110z"/>
<circle cx="111.1" cy="149.9" r="3.3"/>
<circle cx="103.9" cy="149.9" r="3.3"/>
<circle cx="96.7" cy="149.9" r="3.3"/>
<circle cx="89.5" cy="149.9" r="3.3"/>
<circle cx="125.5" cy="13.1" r="3.3"/>
<path d="M17.5,23.6c1.4,0,2.5-0.8,3-2l2.4,0v3.9c0,0.1,0,0.2,0,0.2c0,0.1,0,0.2,0,0.2c0,0.1,0.1,0.1,0.1,0.2c0,0.1,0.1,0.1,0.1,0.2
	c0.1,0.1,0.1,0.1,0.2,0.1c0.1,0,0.1,0.1,0.2,0.1c0.1,0,0.2,0,0.2,0c0.1,0,0.2,0,0.2,0.1l19.6,0.1c0.5,1.1,1.5,1.8,2.8,1.8
	c1.7,0,3.1-1.4,3.1-3s-1.4-3-3.1-3c-1.2,0-2.3,0.7-2.8,1.8l-18.3-0.1v-4c0,0,0,0,0,0c0,0,0,0,0,0c0-0.5-0.3-0.9-0.8-1.1
	c-0.2-0.1-0.3-0.1-0.5-0.1c0,0,0,0,0,0c0,0,0,0,0,0L20.4,19c-0.5-1.1-1.6-2-3-2c-1.8,0-3.3,1.5-3.3,3.3S15.7,23.6,17.5,23.6z"/>
<path d="M17.5,81.2c1.8,0,3.3-1.5,3.3-3.3s-1.5-3.3-3.3-3.3s-3.3,1.5-3.3,3.3S15.7,81.2,17.5,81.2z"/>
<path d="M16.1,138.5c0,0,0,1.3,0,1.4c0,0.1,0,0.1,0,0.2c0,0.1,0,0.2,0,0.2c0,0.1,0.1,0.1,0.1,0.2c0,0.1,0.1,0.1,0.1,0.2
	c0.1,0.1,0.1,0.1,0.2,0.1c0.1,0,0.1,0.1,0.2,0.1c0.1,0,0.2,0,0.3,0.1c0.1,0,0.1,0,0.2,0c0,0,0,0,0.1,0l47.4-0.4c0.1,0,0.2,0,0.2,0
	c0.1,0,0.2,0,0.3-0.1c0.1,0,0.1-0.1,0.2-0.1c0.1,0,0.1-0.1,0.2-0.1c0.1-0.1,0.1-0.1,0.1-0.2c0-0.1,0.1-0.1,0.1-0.2
	c0-0.1,0-0.2,0-0.2c0-0.1,0.1-0.2,0.1-0.2l0.6-112.7l12.9,0.1v1.8h6.1v-6.1h-6.1v1.8c0,0-14.2-0.1-14.2-0.1c-0.2,0-0.3,0-0.5,0.1
	c0,0,0,0,0,0c-0.1,0.1-0.3,0.1-0.4,0.2c0,0,0,0,0,0c-0.1,0.1-0.2,0.2-0.2,0.4c0,0.1,0,0.1,0,0.2c0,0.1-0.1,0.2-0.1,0.3l-0.6,112.7
	c-0.1,0-0.3,0-0.4,0c-0.3,0-0.7,0-1,0c-0.5,0-1,0-1.5,0c-0.6,0-1.2,0-1.9,0c-0.7,0-1.4,0-2,0c-0.7,0-1.4,0-2.1,0
	c-1.2,0-2.4,0-3.6,0.1c-1.2,0.1-2.4,0.1-3.6,0.1c-1,0-1.9,0-2.9,0c-0.2,0-0.4,0-0.6,0c-0.7,0-1.5,0-2.2,0c-0.5,0-0.9,0-1.4,0
	c-0.5,0-1.1,0-1.6,0c-0.6,0-1.2,0-1.8,0c-0.6,0-1.3,0-1.9,0c-0.7,0-1.3,0-2,0c-0.7,0-1.3,0-2,0c-0.7,0-1.3,0-2,0c-0.7,0-1.3,0-2,0
	c-0.6,0-1.2,0-1.9,0c-0.6,0-1.1,0-1.7,0c-0.5,0-1,0-1.5,0c-0.4,0-0.9,0-1.3,0c-0.3,0-0.7,0-1,0c-0.2,0-0.5,0-0.7,0
	c-0.1,0-0.2,0-0.4,0c0,0,0,0,0,0c1.2-0.5,2.1-1.6,2.1-3c0-1.8-1.5-3.3-3.3-3.3s-3.3,1.5-3.3,3.3C14.2,136.8,15,137.9,16.1,138.5z"/>
<path d="M17.5,131.6c1.4,0,2.6-0.9,3-2.1l9-0.3c0,0,13.8,6.3,13.8,6.3c0,0.3,0,0.6,0.1,0.9c0,0.1,0.1,0.3,0.2,0.4
	c0.3,0.5,0.9,0.8,1.5,1c0.5,0.1,1.1,0.2,1.6,0.2c0.2,0,0.4,0,0.6,0c0.2,0,0.3-0.1,0.5-0.1c0.1,0,0.3-0.1,0.4-0.1
	c0.1-0.1,0.2-0.2,0.4-0.2c0.2-0.2,0.3-0.4,0.5-0.6c0.1-0.2,0.2-0.4,0.2-0.6c0.1-0.2,0.1-0.4,0.1-0.6c0,0,0-0.1,0-0.1
	c0-1.7-1.4-3-3.1-3c-0.8,0-1.5,0.3-2,0.8l-13.9-6.3c-0.2-0.1-0.4-0.2-0.6-0.2c0,0,0,0,0,0c0,0,0,0-0.1,0l-9.3,0.3
	c-0.5-1.1-1.6-1.9-3-1.9c-1.8,0-3.3,1.5-3.3,3.3S15.7,131.6,17.5,131.6z"/>
<circle cx="209" cy="13.1" r="3.3"/>
<circle cx="154.3" cy="149.9" r="3.3"/>
<circle cx="154.3" cy="13.1" r="3.3"/>
<path d="M17.5,38c1.2,0,2.2-0.6,2.8-1.5l13.9,2.2l4.2,7.1c0,0,0,0.1,0.1,0.1c0,0,0,0,0,0.1c0,0,2.1,3,3.7,5.1
	c0.9,1.1,1.7,1.9,1.7,1.9c-0.2,0.4-0.4,0.9-0.4,1.4c0,1.7,1.4,3.1,3,3.1c1.7,0,3.1-1.4,3.1-3.1c0-1.7-1.4-3-3.1-3
	c-0.3,0-0.5,0-0.7,0.1c0,0-1.2-1.2-1.8-1.9c-1.6-2-3.6-5-3.6-5L36,36.8c0,0,0,0,0,0c0-0.1-0.1-0.1-0.2-0.2c-0.1-0.1-0.1-0.1-0.2-0.2
	c-0.1,0-0.1-0.1-0.2-0.1c-0.1,0-0.2-0.1-0.2-0.1c0,0,0,0-0.1,0l-14.5-2.3c-0.3-1.4-1.6-2.5-3.1-2.5c-1.8,0-3.3,1.5-3.3,3.3
	S15.7,38,17.5,38z"/>
<circle cx="17.5" cy="63.5" r="3.3"/>
<path d="M17.5,95.6c1.4,0,2.6-0.9,3-2.2l14.7-0.8c0,0,0,0,0,0c0.1,0,0.3,0,0.4-0.1c0,0,0.1,0,0.1,0c0,0,0,0,0,0l8.7-4.9
	c0.5,0.4,1.1,0.6,1.8,0.6c1.7,0,3.1-1.4,3.1-3.1c0-1.7-1.4-3-3.1-3c-1.7,0-3,1.4-3,3c0,0.1,0,0.2,0,0.3l-8.5,4.8l-14.4,0.8
	c-0.5-1.1-1.6-1.8-2.9-1.8c-1.8,0-3.3,1.5-3.3,3.3S15.7,95.6,17.5,95.6z"/>
<circle cx="39.1" cy="13.1" r="3.3"/>
<path d="M17.5,124.4c1.4,0,2.5-0.8,3-2l10.2-0.1l12.6,6c0,0,0,0,0,0.1c0,1.7,1.4,3,3,3c1.7,0,3.1-1.4,3.1-3s-1.4-3-3.1-3
	c-0.7,0-1.4,0.3-2,0.7l-12.8-6.1c0,0,0,0,0,0c-0.1,0-0.2,0-0.2-0.1c-0.1,0-0.2,0-0.2,0c0,0,0,0,0,0c0,0,0,0,0,0l-10.5,0.1
	c-0.5-1.2-1.6-2-3-2c-1.8,0-3.3,1.5-3.3,3.3S15.7,124.4,17.5,124.4z"/>
<circle cx="46.3" cy="13.1" r="3.3"/>
<circle cx="53.5" cy="13.1" r="3.3"/>
<circle cx="60.7" cy="13.1" r="3.3"/>
<circle cx="67.9" cy="13.1" r="3.3"/>
<circle cx="75.1" cy="13.1" r="3.3"/>
<circle cx="82.3" cy="13.1" r="3.3"/>
<circle cx="89.5" cy="13.1" r="3.3"/>
<circle cx="223.4" cy="13.1" r="3.3"/>
<circle cx="194.6" cy="13.1" r="3.3"/>
<circle cx="165.8" cy="13.1" r="3.3"/>
<circle cx="197.5" cy="149.9" r="3.3"/>
<circle cx="168.7" cy="149.9" r="3.3"/>
<circle cx="111.1" cy="13.1" r="3.3"/>
<circle cx="139.9" cy="13.1" r="3.3"/>
<path d="M17.5,16.4c1.4,0,2.5-0.8,3-2l7-0.1l1.7,5.9c0,0,0,0,0,0.1c0,0.1,0,0.1,0.1,0.2c0,0.1,0.1,0.2,0.2,0.2c0,0,0.1,0.1,0.1,0.1
	c0.1,0.1,0.2,0.1,0.2,0.2c0,0,0.1,0,0.1,0.1c0.1,0.1,0.3,0.1,0.4,0.1c0,0,0,0,0,0h59.5l-0.5,7.3l-4.8,2.1c-0.5-0.5-1.3-0.8-2.1-0.8
	c-1.7,0-3,1.4-3,3.1c0,1.7,1.4,3,3,3c1.7,0,3-1.3,3-3l5.5-2.4c0,0,0.1-0.1,0.1-0.1c0.1-0.1,0.2-0.1,0.3-0.2c0,0,0.1-0.1,0.1-0.2
	c0.1-0.1,0.1-0.1,0.1-0.2c0-0.1,0-0.1,0.1-0.2c0-0.1,0-0.1,0.1-0.2l0.6-9.4c0,0,0,0,0,0c0,0,0,0,0,0c0-0.1,0-0.1,0-0.2
	c0-0.1,0-0.2,0-0.2c0-0.1-0.1-0.1-0.1-0.2c0-0.1-0.1-0.1-0.1-0.2c-0.1-0.1-0.1-0.1-0.2-0.1c-0.1,0-0.1-0.1-0.2-0.1
	c-0.1,0-0.2,0-0.2-0.1c-0.1,0-0.1,0-0.2-0.1c0,0,0,0,0,0c0,0,0,0,0,0H31.3l-1.7-5.9c0,0,0-0.1,0-0.1c0-0.1-0.1-0.1-0.1-0.2
	c-0.1-0.1-0.1-0.2-0.2-0.2c0,0-0.1-0.1-0.1-0.1C29,12,29,11.9,28.9,11.8c-0.1,0-0.1,0-0.2-0.1c-0.1,0-0.2,0-0.3,0c0,0,0,0-0.1,0
	l-7.9,0.1c-0.5-1.2-1.6-2-3-2c-1.8,0-3.3,1.5-3.3,3.3S15.7,16.4,17.5,16.4z"/>
<path d="M17.5,30.8c0.9,0,1.6-0.3,2.2-0.9l4.3,1.9c0.1,0,0.1,0,0.2,0c0.1,0,0.1,0.1,0.2,0.1l12.2,1.2c0,0,0,0,0,0c0,0,0,0,0,0l7,0.6
	c0.4,1.2,1.5,2,2.9,2c1.7,0,3.1-1.4,3.1-3c0-1.7-1.4-3.1-3.1-3.1c-1.1,0-2.1,0.6-2.6,1.6l-7-0.6c0,0,0,0,0,0l-12-1.2l-4.2-1.8
	c0,0,0,0,0-0.1c0-1.8-1.5-3.3-3.3-3.3s-3.3,1.5-3.3,3.3S15.7,30.8,17.5,30.8z"/>
<path d="M17.5,45.2c1.1,0,2.1-0.6,2.7-1.4l10,2L38,60.3c0,0,0,0,0,0c0,0,0,0.1,0.1,0.1c0.1,0.1,0.1,0.2,0.2,0.3c0,0,0.1,0,0.1,0.1
	c0.1,0.1,0.3,0.1,0.4,0.2c0,0,0,0,0,0l4.7,1.1c0.3,1.4,1.5,2.5,3,2.5c1.7,0,3.1-1.4,3.1-3s-1.4-3-3.1-3c-1,0-1.8,0.5-2.4,1.2l-4.2-1
	L32,44c0,0,0,0,0,0c0-0.1-0.1-0.1-0.2-0.2c-0.1-0.1-0.1-0.1-0.2-0.2c-0.1,0-0.1-0.1-0.2-0.1c-0.1,0-0.2-0.1-0.2-0.1c0,0,0,0-0.1,0
	l-10.5-2.1c-0.3-1.5-1.6-2.6-3.2-2.6c-1.8,0-3.3,1.5-3.3,3.3S15.7,45.2,17.5,45.2z"/>
<path d="M17.5,59.6c0.9,0,1.7-0.3,2.2-0.9l4.5,2l3.1,13c0,0,0,0,0,0c0,0,0,0.1,0,0.1c0,0.1,0.1,0.2,0.1,0.3c0,0,0.1,0.1,0.1,0.1
	c0.1,0.1,0.1,0.1,0.2,0.2c0,0,0.1,0.1,0.1,0.1c0.1,0,0.2,0.1,0.3,0.1c0,0,0.1,0,0.1,0l15.3,2.2c0.4,1.3,1.5,2.2,2.9,2.2
	c1.7,0,3.1-1.4,3.1-3.1c0-1.7-1.4-3-3.1-3c-1.1,0-2,0.6-2.6,1.4l-14.4-2.1l-3-12.8c0,0,0,0,0-0.1c0-0.1-0.1-0.2-0.1-0.2
	c0-0.1-0.1-0.1-0.1-0.2c0-0.1-0.1-0.1-0.2-0.2c-0.1-0.1-0.1-0.1-0.2-0.1c0,0,0,0-0.1,0l-5.1-2.2c0,0,0,0,0-0.1
	c0-1.8-1.5-3.3-3.3-3.3s-3.3,1.5-3.3,3.3S15.7,59.6,17.5,59.6z"/>
<circle cx="17.5" cy="70.7" r="3.3"/>
<circle cx="17.5" cy="85.1" r="3.3"/>
<path d="M17.5,102.8c1.3,0,2.5-0.8,3-2l15.9,0c0,0,0,0,0,0c0,0,0,0,0,0c0,0,0,0,0,0c0.1,0,0.3,0,0.4-0.1c0,0,0.1,0,0.1-0.1
	c0.1,0,0.1,0,0.2-0.1l7.6-5.6c0.4,0.3,1,0.4,1.5,0.4c1.7,0,3.1-1.4,3.1-3s-1.4-3-3.1-3c-1.7,0-3,1.4-3,3c0,0.2,0,0.4,0.1,0.6
	L36,98.3l-15.5,0c-0.5-1.2-1.6-2-3-2c-1.8,0-3.3,1.5-3.3,3.3S15.7,102.8,17.5,102.8z"/>
<path d="M17.5,117.2c1.4,0,2.6-0.9,3.1-2.2l11.4-0.8l11.4,6.6c0,0.1,0,0.2,0,0.3c0,1.7,1.4,3.1,3,3.1c1.7,0,3.1-1.4,3.1-3.1
	c0-1.7-1.4-3-3.1-3c-0.7,0-1.3,0.2-1.8,0.6l-11.7-6.8c0,0-0.1,0-0.1,0c-0.1,0-0.1-0.1-0.2-0.1c-0.1,0-0.2,0-0.3,0c0,0-0.1,0-0.1,0
	l-11.7,0.8c-0.5-1.1-1.6-1.8-2.9-1.8c-1.8,0-3.3,1.5-3.3,3.3S15.7,117.2,17.5,117.2z"/>
<circle cx="230.6" cy="13.1" r="3.3"/>
<circle cx="216.2" cy="13.1" r="3.3"/>
<circle cx="201.8" cy="13.1" r="3.3"/>
<circle cx="187.4" cy="13.1" r="3.3"/>
<circle cx="173" cy="13.1" r="3.3"/>
<circle cx="204.7" cy="149.9" r="3.3"/>
<circle cx="190.3" cy="149.9" r="3.3"/>
<circle cx="161.5" cy="149.9" r="3.3"/>
<circle cx="103.9" cy="13.1" r="3.3"/>
<circle cx="118.3" cy="13.1" r="3.3"/>
<circle cx="132.7" cy="13.1" r="3.3"/>
<circle cx="147.1" cy="13.1" r="3.3"/>
<circle cx="10.3" cy="13.1" r="3.3"/>
<circle cx="10.3" cy="20.3" r="3.3"/>
<circle cx="10.3" cy="27.5" r="3.3"/>
<circle cx="10.3" cy="34.7" r="3.3"/>
<circle cx="10.3" cy="41.9" r="3.3"/>
<circle cx="10.3" cy="49.1" r="3.3"/>
<circle cx="10.3" cy="56.3" r="3.3"/>
<circle cx="10.3" cy="63.5" r="3.3"/>
<circle cx="10.3" cy="70.7" r="3.3"/>
<path d="M10.3,81.2c1.8,0,3.3-1.5,3.3-3.3s-1.5-3.3-3.3-3.3S7,76.1,7,77.9S8.5,81.2,10.3,81.2z"/>
<circle cx="10.3" cy="85.1" r="3.3"/>
<circle cx="10.3" cy="92.3" r="3.3"/>
<circle cx="10.3" cy="99.5" r="3.3"/>
<circle cx="10.3" cy="106.7" r="3.3"/>
<circle cx="10.3" cy="113.9" r="3.3"/>
<circle cx="10.3" cy="121.1" r="3.3"/>
<circle cx="10.3" cy="128.3" r="3.3"/>
<path d="M8.9,138.5l-0.1,5.7c0,0,0,0,0,0c0,0,0,0,0,0c0,0.1,0,0.2,0.1,0.2c0,0.1,0,0.2,0,0.2c0,0.1,0.1,0.1,0.1,0.2
	c0,0.1,0.1,0.1,0.1,0.2c0.1,0.1,0.1,0.1,0.2,0.1c0.1,0,0.1,0.1,0.2,0.1c0.1,0,0.2,0,0.3,0.1c0.1,0,0.1,0,0.2,0c0,0,0,0,0,0
	c0,0,0,0,0,0c0,0,0,0,0,0l59.2-1c0.1,0,0.2,0,0.2-0.1c0.1,0,0.2,0,0.2-0.1c0.1,0,0.1-0.1,0.2-0.1c0.1,0,0.1-0.1,0.2-0.1
	c0.1-0.1,0.1-0.1,0.1-0.2c0-0.1,0.1-0.1,0.1-0.2c0-0.1,0-0.2,0.1-0.3c0-0.1,0-0.1,0-0.2V86.3l8.7,0.1v1.8h6.1v-6.1h-6.1v1.8
	l-9.9-0.1c0,0,0,0,0,0c-0.2,0-0.3,0-0.5,0.1c-0.1,0-0.1,0.1-0.1,0.1c-0.1,0.1-0.2,0.1-0.3,0.2c0,0-0.1,0.1-0.1,0.2
	c-0.1,0.1-0.1,0.1-0.2,0.2c0,0.1,0,0.1,0,0.2c0,0.1-0.1,0.2-0.1,0.3c0,0,0,0,0,0c0,0,0,0,0,0v57l-56.7,1l0.1-4.4
	c1.2-0.5,2.1-1.6,2.1-3c0-1.8-1.5-3.3-3.3-3.3S7,133.7,7,135.5C7,136.8,7.8,138,8.9,138.5z"/>
<circle cx="75.1" cy="149.9" r="3.3"/>
<path d="M82.5,64.5c1.3,0,2.4-0.8,2.8-1.9l8.5-0.3c0,0,0,0,0,0c0.1,0,0.3,0,0.4-0.1c0,0,0.1,0,0.1,0c0,0,0,0,0,0l8.8-4.7
	c0.6,0.5,1.4,0.9,2.3,0.9c2,0,3.5-1.6,3.5-3.5s-1.6-3.5-3.5-3.5s-3.5,1.6-3.5,3.5c0,0.2,0,0.3,0,0.5l-8.5,4.6l-8.2,0.3
	c-0.5-1-1.5-1.7-2.7-1.7c-1.7,0-3,1.4-3,3S80.8,64.5,82.5,64.5z"/>
<path d="M82.5,57.3c1.3,0,2.3-0.8,2.8-1.9l7.3-0.1c0,0,0,0,0,0c0.1,0,0.3,0,0.4-0.1c0,0,0.1,0,0.1-0.1c0,0,0.1,0,0.1-0.1l10.2-7.3
	c0.6,0.4,1.2,0.6,2,0.6c2,0,3.5-1.6,3.5-3.5s-1.6-3.5-3.5-3.5s-3.5,1.6-3.5,3.5c0,0.3,0.1,0.6,0.1,0.9l-9.9,7L85.3,53
	c-0.5-1-1.5-1.7-2.7-1.7c-1.7,0-3,1.4-3,3C79.5,56,80.8,57.3,82.5,57.3z"/>
<path d="M85.2,45.6c-0.5-0.9-1.5-1.6-2.7-1.6c-1.7,0-3,1.4-3,3.1c0,1.7,1.4,3,3,3c1.3,0,2.4-0.9,2.9-2l6.9-0.6c0,0,0.1,0,0.1,0
	c0.1,0,0.2,0,0.3-0.1c0.1,0,0.1-0.1,0.2-0.1c0,0,0.1,0,0.1-0.1l10.8-9.1c0.5,0.3,1.1,0.5,1.7,0.5c2,0,3.5-1.6,3.5-3.5
	s-1.6-3.5-3.5-3.5s-3.5,1.6-3.5,3.5c0,0.4,0.1,0.8,0.2,1.2l-10.5,8.9L85.2,45.6z"/>
<path d="M49.6,39.9c0-1.7-1.4-3-3.1-3c-1.7,0-3,1.4-3,3c0,1.2,0.7,2.3,1.8,2.8v1.6c-1.1,0.5-1.8,1.5-1.8,2.8c0,1.7,1.4,3,3,3
	c1.7,0,3.1-1.4,3.1-3c0-1.2-0.7-2.3-1.8-2.8v-1.6C48.8,42.2,49.6,41.1,49.6,39.9z"/>
<path d="M49.3,99.5c0-1.7-1.4-3-3.1-3c-1.7,0-3,1.4-3,3c0,1.2,0.7,2.3,1.8,2.8v1.7c-1.1,0.5-1.8,1.5-1.8,2.8c0,1.7,1.4,3,3,3
	c1.7,0,3.1-1.4,3.1-3c0-1.2-0.7-2.3-1.8-2.8v-1.6C48.6,101.8,49.3,100.7,49.3,99.5z"/>
<path d="M82.3,96.5c-1.7,0-3,1.4-3,3s1.4,3,3,3c1.7,0,3.1-1.4,3.1-3c0-0.1,0-0.1,0-0.2l15.1-8.1h0.7c0.6,0.4,1.3,0.7,2,0.7
	c0.8,0,1.5-0.2,2-0.7h0.8v-0.8c0.4-0.6,0.7-1.3,0.7-2s-0.2-1.5-0.7-2v-0.8h-0.8c-0.6-0.4-1.3-0.7-2-0.7s-1.5,0.2-2,0.7h-0.8v0.8
	c-0.4,0.6-0.7,1.3-0.7,2c0,0.2,0,0.3,0,0.5l-15.5,8.3C83.6,96.7,83,96.5,82.3,96.5z"/>
<path d="M103.1,94.7c-2,0-3.5,1.6-3.5,3.5c0,0,0,0.1,0,0.1l-15.2,6.2c-0.5-0.5-1.3-0.8-2.1-0.8c-1.7,0-3,1.4-3,3s1.4,3,3,3
	c1.6,0,3-1.3,3-2.9l15.2-6.2c0.6,0.7,1.6,1.1,2.6,1.1c2,0,3.5-1.6,3.5-3.5S105.1,94.7,103.1,94.7z"/>
<path d="M103.1,104.6c-1.8,0-3.3,1.4-3.5,3.2l-15,4.2c-0.6-0.7-1.4-1.1-2.3-1.1c-1.7,0-3,1.4-3,3.1c0,1.7,1.4,3,3,3
	c1.5,0,2.8-1.1,3-2.6l15-4.2c0.6,0.9,1.7,1.5,2.8,1.5c2,0,3.5-1.6,3.5-3.5S105.1,104.6,103.1,104.6z"/>
<path d="M103.1,114.5c-1.7,0-3.1,1.2-3.5,2.8l-14.8,2.2c-0.5-0.8-1.5-1.4-2.6-1.4c-1.7,0-3,1.4-3,3c0,1.7,1.4,3.1,3,3.1
	c1.4,0,2.6-0.9,2.9-2.2l14.9-2.2c0.6,1.1,1.8,1.8,3.1,1.8c2,0,3.5-1.6,3.5-3.5S105.1,114.5,103.1,114.5z"/>
<path d="M176.1,141.4C176.1,141.4,176,141.4,176.1,141.4C176,141.4,176,141.4,176.1,141.4l-100.7,0.4l0.6-48.4l3.5,0.1
	c0.5,1.1,1.5,1.9,2.8,1.9c1.7,0,3.1-1.4,3.1-3s-1.4-3-3.1-3c-1.2,0-2.2,0.7-2.7,1.7l-4.8-0.2c0,0,0,0,0,0c0,0,0,0,0,0c0,0,0,0,0,0
	c-0.1,0-0.1,0-0.2,0c-0.1,0-0.2,0-0.3,0.1c0,0,0,0-0.1,0C74,91,73.9,91,73.8,91.1c0,0-0.1,0.1-0.1,0.1c-0.1,0.1-0.1,0.2-0.2,0.2
	c0,0.1,0,0.2-0.1,0.3c0,0.1,0,0.1,0,0.2c0,0,0,0,0,0c0,0,0,0,0,0l-0.6,51c0,0,0,0,0,0c0,0,0,0,0,0c0,0.1,0,0.2,0,0.2
	c0,0.1,0,0.2,0.1,0.3c0,0.1,0.1,0.1,0.1,0.2c0,0.1,0.1,0.2,0.1,0.2c0.1,0.1,0.1,0.1,0.2,0.1c0.1,0.1,0.1,0.1,0.2,0.1
	c0.1,0,0.2,0,0.2,0.1c0.1,0,0.2,0,0.2,0.1c0,0,0,0,0,0c0,0,0,0,0,0c0,0,0,0,0,0l100.7-0.4l-0.1,3c-1.2,0.5-2.1,1.6-2.1,3
	c0,1.8,1.5,3.3,3.3,3.3s3.3-1.5,3.3-3.3c0-1.3-0.8-2.5-1.9-3l0.1-4.3c0,0,0,0,0,0c0,0,0,0,0,0c0-0.1,0-0.1,0-0.2
	c0-0.1,0-0.2-0.1-0.3c0-0.1-0.1-0.1-0.1-0.2c0-0.1-0.1-0.1-0.1-0.2c-0.1-0.1-0.1-0.1-0.2-0.1c-0.1,0-0.1-0.1-0.2-0.1
	c-0.1,0-0.2,0-0.2-0.1C176.2,141.4,176.2,141.4,176.1,141.4C176.1,141.4,176.1,141.4,176.1,141.4z"/>
<path d="M121.3,57.9c-0.1,0.1-0.2,0.1-0.3,0.2c0,0-0.1,0.1-0.1,0.2c-0.1,0.1-0.1,0.1-0.2,0.2c0,0.1,0,0.1,0,0.2
	c0,0.1-0.1,0.2-0.1,0.3l-0.2,8.8l-13.5-0.3v-2.1h-6.5v2l-14.9,0.1v-1.8h-6.1v6.1h6.1v-1.8l14.9-0.1v2h6.5v-1.9l14.7,0.3c0,0,0,0,0,0
	c0.2,0,0.3,0,0.5-0.1c0.1,0,0.2-0.1,0.3-0.2c0,0,0.1-0.1,0.1-0.1c0.1-0.1,0.1-0.1,0.2-0.2c0-0.1,0.1-0.1,0.1-0.2c0-0.1,0-0.1,0-0.2
	c0-0.1,0.1-0.2,0.1-0.3c0,0,0,0,0,0c0,0,0,0,0,0l0.2-8.8h21.2l0,5.9c-0.7,0.3-1.2,0.9-1.5,1.5l-13.7,0.1c-0.1,0-0.2,0-0.3,0.1
	c-0.1,0-0.1,0-0.2,0c-0.1,0-0.2,0.1-0.3,0.2c0,0-0.1,0.1-0.1,0.1c-0.1,0.1-0.1,0.2-0.2,0.2c0,0.1-0.1,0.1-0.1,0.2
	c0,0.1,0,0.2-0.1,0.3c0,0.1,0,0.1,0,0.2v0v0v0l0.2,46.7l-6.2,0.2c-0.1,0-0.1,0-0.2,0c-0.1,0-0.2,0-0.3,0.1c-0.1,0-0.1,0.1-0.2,0.1
	c-0.1,0-0.1,0.1-0.2,0.1c-0.1,0.1-0.1,0.1-0.1,0.2c0,0.1-0.1,0.1-0.1,0.2c0,0.1,0,0.2,0,0.2c0,0.1,0,0.1,0,0.2l-0.1,7.9h-2v2
	l-33.2,0v-1.8h-6.1v6.1h6.1v-1.8l33.2,0v2h6.5V125H123l0.1-6.7l6.2-0.2c0.1,0,0.2,0,0.2-0.1c0.1,0,0.2,0,0.2-0.1
	c0.1,0,0.1-0.1,0.2-0.1c0.1,0,0.1-0.1,0.2-0.1c0.1-0.1,0.1-0.1,0.1-0.2c0-0.1,0.1-0.1,0.1-0.2c0-0.1,0-0.2,0.1-0.3
	c0-0.1,0-0.1,0-0.2l0,0c0,0,0,0,0,0c0,0,0,0,0,0l-0.2-46.7l12.5-0.1c0.5,1,1.5,1.8,2.8,1.8c1.7,0,3-1.4,3-3c0-1.2-0.7-2.3-1.8-2.8
	l0-7.1c0-0.1,0-0.2-0.1-0.3c0-0.1,0-0.1,0-0.2c0-0.1-0.1-0.2-0.2-0.2c0-0.1-0.1-0.1-0.1-0.2c-0.1-0.1-0.2-0.1-0.2-0.2
	c-0.1,0-0.1-0.1-0.1-0.1c-0.1-0.1-0.3-0.1-0.5-0.1h0h-23.7h0c0,0,0,0,0,0c-0.2,0-0.3,0-0.5,0.1C121.3,57.8,121.3,57.8,121.3,57.9z"
	/>
<path d="M121.7,132.2c-1.3,0-2.5,0.8-3,2l-33.7,0c-0.5-1.1-1.5-1.8-2.8-1.8c-1.7,0-3,1.4-3,3s1.4,3,3,3c1.2,0,2.3-0.7,2.8-1.8
	l33.7,0c0.5,1.2,1.6,2,3,2c1.4,0,2.5-0.8,3-2l21.1-0.4c0.1,0,0.2,0,0.2-0.1c0.1,0,0.2,0,0.2-0.1c0.1,0,0.1-0.1,0.2-0.1
	c0.1,0,0.1-0.1,0.2-0.1c0.1-0.1,0.1-0.1,0.1-0.2c0-0.1,0.1-0.1,0.1-0.2c0-0.1,0-0.2,0.1-0.3c0-0.1,0-0.1,0-0.2l0,0c0,0,0,0,0,0
	c0,0,0,0,0,0l-0.1-56.1c1.1-0.5,1.8-1.5,1.8-2.8c0-1.7-1.4-3-3-3c-1.3,0-2.4,0.8-2.8,1.9l-6.9,0.2c-0.1,0-0.1,0-0.2,0.1
	c-0.1,0-0.2,0-0.2,0.1c-0.1,0-0.1,0.1-0.2,0.1c-0.1,0-0.1,0.1-0.2,0.1c-0.1,0.1-0.1,0.1-0.1,0.2c0,0.1-0.1,0.1-0.1,0.2
	c0,0.1,0,0.2,0,0.2c0,0.1,0,0.1,0,0.2l-0.2,27.3c-1.2,0.5-2,1.6-2,3c0,1.8,1.4,3.2,3.2,3.2c1.8,0,3.2-1.4,3.2-3.2c0-1.3-0.8-2.5-2-3
	l0.2-26.1l5.7-0.2c0.3,0.6,0.8,1.1,1.5,1.4l0.1,54.9l-19.9,0.4C124.1,133,123,132.2,121.7,132.2z"/>
<path d="M123.1,75.6c0-0.1,0-0.2-0.1-0.3c0-0.1-0.1-0.1-0.1-0.2c0-0.1-0.1-0.1-0.1-0.2c-0.1-0.1-0.1-0.1-0.2-0.1
	c-0.1,0-0.1-0.1-0.2-0.1c-0.1,0-0.2,0-0.3-0.1c-0.1,0-0.1,0-0.2,0c0,0,0,0,0,0l-15.2,0c-0.5-1.2-1.6-2-3-2c-1.3,0-2.5,0.8-3,2
	l-15.4,0.1c-0.5-1-1.5-1.8-2.8-1.8c-1.7,0-3,1.4-3,3c0,1.7,1.4,3.1,3,3.1c1.2,0,2.3-0.7,2.8-1.8l15.4-0.1c0.5,1.2,1.6,2,3,2
	c1.3,0,2.5-0.8,3-2l13.9,0l-0.1,26.7c-1.2,0.5-2,1.6-2,3c0,1.8,1.4,3.2,3.2,3.2c1.8,0,3.2-1.4,3.2-3.2c0-1.3-0.8-2.5-2-3l0.1-27.9
	c0,0,0,0,0,0s0,0,0,0C123.1,75.7,123.1,75.6,123.1,75.6z"/>
<path d="M103.4,22.2h-0.8v0.8c-0.4,0.6-0.7,1.3-0.7,2c0,0.5,0.1,1,0.3,1.4L91,37.7l-5.9,0.7c-0.5-0.9-1.5-1.5-2.6-1.5
	c-1.7,0-3,1.4-3,3c0,1.7,1.4,3.1,3,3.1c1.4,0,2.5-0.9,2.9-2.1l6.3-0.7c0.1,0,0.1,0,0.2,0c0.1,0,0.2,0,0.2-0.1c0.1,0,0.1-0.1,0.2-0.1
	c0,0,0.1,0,0.1-0.1L104,28.3c0.4,0.2,0.9,0.3,1.5,0.3c0.8,0,1.5-0.2,2-0.7h0.8v-0.8c0.4-0.6,0.7-1.3,0.7-2s-0.2-1.5-0.7-2v-0.8h-0.8
	c-0.6-0.4-1.3-0.7-2-0.7S104,21.8,103.4,22.2z"/>
</svg>
