<?xml version='1.0' encoding='UTF-8' standalone='no'?>
<!-- Created with Fritzing (http://www.fritzing.org/) -->
<svg xmlns="http://www.w3.org/2000/svg"  xmlns:svg="http://www.w3.org/2000/svg" baseProfile="tiny" version="1.2" y="0in" height="2.22222in" x="0in" width="3.33333in" viewBox="0 0 240 160">
 <g transform="matrix(-1, 0, 0, 1, 240, 0)">
  <g partID="58162">
   <g id="silkscreen0">
    <rect fill="none" y="0.288" height="159.424" x="0.288" stroke="black" stroke-width="0.576" width="239.424"/>
   </g>
  </g>
  <g partID="58160">
   <g id="board">
    <rect fill="none" y="0.288" height="159.424" x="0.288" fill-opacity="0.5" stroke="black" id="boardoutline" stroke-width="0.5" width="239.424"/>
   </g>
  </g>
  <g partID="58162">
   <g id="silkscreen0">
    <rect fill="none" y="0.288" height="159.424" x="0.288" stroke="black" stroke-width="0.576" width="239.424"/>
   </g>
  </g>
  <g partID="58200">
   <g transform="translate(-43.8537,5.90363)">
    <g id="copper0">
     <circle fill="white" cx="215.998" stroke="white" cy="144" id="connector1pad" stroke-width="1.97" r="2"/>
     <circle fill="white" cx="100.798" stroke="white" cy="144" id="connector257pad" stroke-width="1.97" r="2"/>
     <circle fill="white" cx="223.196" stroke="white" cy="144" id="connector2pad" stroke-width="1.97" r="2"/>
     <circle fill="white" cx="230.398" stroke="white" cy="144" id="connector3pad" stroke-width="1.97" r="2"/>
     <circle fill="white" cx="237.597" stroke="white" cy="144" id="connector4pad" stroke-width="1.97" r="2"/>
     <circle fill="white" cx="244.798" stroke="white" cy="144" id="connector5pad" stroke-width="1.97" r="2"/>
     <circle fill="white" cx="266.398" stroke="white" cy="43.2" id="connector353pad" stroke-width="1.97" r="2"/>
     <circle fill="white" cx="251.998" stroke="white" cy="144" id="connector6pad" stroke-width="1.97" r="2"/>
     <circle fill="white" cx="259.196" stroke="white" cy="144" id="connector7pad" stroke-width="1.97" r="2"/>
     <circle fill="white" cx="103.677" stroke="white" cy="7.2" id="connector241pad" stroke-width="1.97" r="2"/>
     <circle fill="white" cx="143.998" stroke="white" cy="144" id="connector8pad" stroke-width="1.97" r="2"/>
     <circle fill="white" cx="151.196" stroke="white" cy="144" id="connector9pad" stroke-width="1.97" r="2"/>
     <circle fill="white" cx="158.398" stroke="white" cy="144" id="connector10pad" stroke-width="1.97" r="2"/>
     <circle fill="white" cx="165.597" stroke="white" cy="144" id="connector11pad" stroke-width="1.97" r="2"/>
     <circle fill="white" cx="266.398" stroke="white" cy="100.8" id="connector369pad" stroke-width="1.97" r="2"/>
     <circle fill="white" cx="172.798" stroke="white" cy="144" id="connector12pad" stroke-width="1.97" r="2"/>
     <circle fill="white" cx="179.998" stroke="white" cy="144" id="connector13pad" stroke-width="1.97" r="2"/>
     <circle fill="white" cx="187.196" stroke="white" cy="144" id="connector14pad" stroke-width="1.97" r="2"/>
     <circle fill="white" cx="194.398" stroke="white" cy="144" id="connector15pad" stroke-width="1.97" r="2"/>
     <circle fill="white" cx="158.398" stroke="white" cy="7.2" id="connector265pad" stroke-width="1.97" r="2"/>
     <circle fill="white" cx="266.398" stroke="white" cy="14.4" id="connector345pad" stroke-width="1.97" r="2"/>
     <circle fill="white" cx="266.398" stroke="white" cy="72" id="connector361pad" stroke-width="1.97" r="2"/>
     <circle fill="white" cx="266.398" stroke="white" cy="129.6" id="connector377pad" stroke-width="1.97" r="2"/>
     <circle fill="white" cx="74.878" stroke="white" cy="7.2" id="connector237pad" stroke-width="1.97" r="2"/>
     <circle fill="white" cx="129.597" stroke="white" cy="144" id="connector261pad" stroke-width="1.97" r="2"/>
     <circle fill="white" cx="129.597" stroke="white" cy="7.2" id="connector269pad" stroke-width="1.97" r="2"/>
     <circle fill="white" cx="266.398" stroke="white" cy="28.8" id="connector349pad" stroke-width="1.97" r="2"/>
     <circle fill="white" cx="266.398" stroke="white" cy="57.6" id="connector357pad" stroke-width="1.97" r="2"/>
     <circle fill="white" cx="266.398" stroke="white" cy="86.4" id="connector365pad" stroke-width="1.97" r="2"/>
     <circle fill="white" cx="244.798" stroke="white" cy="7.2" id="connector46pad" stroke-width="1.97" r="2"/>
     <circle fill="white" cx="266.398" stroke="white" cy="115.2" id="connector373pad" stroke-width="1.97" r="2"/>
     <circle fill="white" cx="237.597" stroke="white" cy="7.2" id="connector47pad" stroke-width="1.97" r="2"/>
     <circle fill="white" cx="230.398" stroke="white" cy="7.2" id="connector48pad" stroke-width="1.97" r="2"/>
     <circle fill="white" cx="223.196" stroke="white" cy="7.2" id="connector49pad" stroke-width="1.97" r="2"/>
     <circle fill="white" cx="215.998" stroke="white" cy="7.2" id="connector50pad" stroke-width="1.97" r="2"/>
     <circle fill="white" cx="208.798" stroke="white" cy="7.2" id="connector51pad" stroke-width="1.97" r="2"/>
     <circle fill="white" cx="201.597" stroke="white" cy="7.2" id="connector52pad" stroke-width="1.97" r="2"/>
     <circle fill="white" cx="194.398" stroke="white" cy="7.2" id="connector53pad" stroke-width="1.97" r="2"/>
     <circle fill="white" cx="60.477" stroke="white" cy="7.2" id="connector235pad" stroke-width="1.97" r="2"/>
     <circle fill="white" cx="89.277" stroke="white" cy="7.2" id="connector239pad" stroke-width="1.97" r="2"/>
     <circle fill="white" cx="118.077" stroke="white" cy="7.2" id="connector243pad" stroke-width="1.97" r="2"/>
     <circle fill="white" cx="86.397" stroke="white" cy="144" id="connector255pad" stroke-width="1.97" r="2"/>
     <circle fill="white" cx="115.197" stroke="white" cy="144" id="connector259pad" stroke-width="1.97" r="2"/>
     <circle fill="white" cx="172.798" stroke="white" cy="7.2" id="connector263pad" stroke-width="1.97" r="2"/>
     <circle fill="white" cx="143.998" stroke="white" cy="7.2" id="connector267pad" stroke-width="1.97" r="2"/>
     <circle fill="white" cx="266.398" stroke="white" cy="7.2" id="connector343pad" stroke-width="1.97" r="2"/>
     <circle fill="white" cx="266.398" stroke="white" cy="21.6" id="connector347pad" stroke-width="1.97" r="2"/>
     <circle fill="white" cx="266.398" stroke="white" cy="36" id="connector351pad" stroke-width="1.97" r="2"/>
     <circle fill="white" cx="266.398" stroke="white" cy="50.4" id="connector355pad" stroke-width="1.97" r="2"/>
     <circle fill="white" cx="266.398" stroke="white" cy="64.8" id="connector359pad" stroke-width="1.97" r="2"/>
     <circle fill="white" cx="266.398" stroke="white" cy="79.2" id="connector363pad" stroke-width="1.97" r="2"/>
     <circle fill="white" cx="266.398" stroke="white" cy="93.6" id="connector367pad" stroke-width="1.97" r="2"/>
     <circle fill="white" cx="266.398" stroke="white" cy="108" id="connector371pad" stroke-width="1.97" r="2"/>
     <circle fill="white" cx="266.398" stroke="white" cy="122.4" id="connector375pad" stroke-width="1.97" r="2"/>
     <circle fill="white" cx="53.276" stroke="white" cy="7.2" id="connector234pad" stroke-width="1.97" r="2"/>
     <circle fill="white" cx="67.677" stroke="white" cy="7.2" id="connector236pad" stroke-width="1.97" r="2"/>
     <circle fill="white" cx="82.077" stroke="white" cy="7.2" id="connector238pad" stroke-width="1.97" r="2"/>
     <circle fill="white" cx="96.477" stroke="white" cy="7.2" id="connector240pad" stroke-width="1.97" r="2"/>
     <circle fill="white" cx="110.878" stroke="white" cy="7.2" id="connector242pad" stroke-width="1.97" r="2"/>
     <circle fill="white" cx="79.197" stroke="white" cy="144" id="connector254pad" stroke-width="1.97" r="2"/>
     <circle fill="white" cx="93.597" stroke="white" cy="144" id="connector256pad" stroke-width="1.97" r="2"/>
     <circle fill="white" cx="107.998" stroke="white" cy="144" id="connector258pad" stroke-width="1.97" r="2"/>
     <circle fill="white" cx="122.397" stroke="white" cy="144" id="connector260pad" stroke-width="1.97" r="2"/>
     <circle fill="white" cx="179.998" stroke="white" cy="7.2" id="connector262pad" stroke-width="1.97" r="2"/>
     <circle fill="white" cx="165.597" stroke="white" cy="7.2" id="connector264pad" stroke-width="1.97" r="2"/>
     <circle fill="white" cx="151.196" stroke="white" cy="7.2" id="connector266pad" stroke-width="1.97" r="2"/>
     <circle fill="white" cx="136.798" stroke="white" cy="7.2" id="connector268pad" stroke-width="1.97" r="2"/>
     <circle fill="white" cx="273.597" stroke="white" cy="7.2" id="connector344pad" stroke-width="1.97" r="2"/>
     <circle fill="white" cx="273.597" stroke="white" cy="14.4" id="connector346pad" stroke-width="1.97" r="2"/>
     <circle fill="white" cx="273.597" stroke="white" cy="21.6" id="connector348pad" stroke-width="1.97" r="2"/>
     <circle fill="white" cx="273.597" stroke="white" cy="28.8" id="connector350pad" stroke-width="1.97" r="2"/>
     <circle fill="white" cx="273.597" stroke="white" cy="36" id="connector352pad" stroke-width="1.97" r="2"/>
     <circle fill="white" cx="273.597" stroke="white" cy="43.2" id="connector354pad" stroke-width="1.97" r="2"/>
     <circle fill="white" cx="273.597" stroke="white" cy="50.4" id="connector356pad" stroke-width="1.97" r="2"/>
     <circle fill="white" cx="273.597" stroke="white" cy="57.6" id="connector358pad" stroke-width="1.97" r="2"/>
     <circle fill="white" cx="273.597" stroke="white" cy="64.8" id="connector360pad" stroke-width="1.97" r="2"/>
     <circle fill="white" cx="273.597" stroke="white" cy="72" id="connector362pad" stroke-width="1.97" r="2"/>
     <circle fill="white" cx="273.597" stroke="white" cy="79.2" id="connector364pad" stroke-width="1.97" r="2"/>
     <circle fill="white" cx="273.597" stroke="white" cy="86.4" id="connector366pad" stroke-width="1.97" r="2"/>
     <circle fill="white" cx="273.597" stroke="white" cy="93.6" id="connector368pad" stroke-width="1.97" r="2"/>
     <circle fill="white" cx="273.597" stroke="white" cy="100.8" id="connector370pad" stroke-width="1.97" r="2"/>
     <circle fill="white" cx="273.597" stroke="white" cy="108" id="connector372pad" stroke-width="1.97" r="2"/>
     <circle fill="white" cx="273.597" stroke="white" cy="115.2" id="connector374pad" stroke-width="1.97" r="2"/>
     <circle fill="white" cx="273.597" stroke="white" cy="122.4" id="connector376pad" stroke-width="1.97" r="2"/>
     <circle fill="white" cx="273.597" stroke="white" cy="129.6" id="connector378pad" stroke-width="1.97" r="2"/>
     <circle fill="white" cx="208.798" stroke="white" cy="144" id="connector0pad" stroke-width="1.97" r="2"/>
    </g>
   </g>
  </g>
  <g partID="854517570">
   <g transform="translate(197.097,79.4941)">
    <g transform="matrix(-1,0,0,-1,0,0)">
     <g id="copper0" gorn="0.3.0">
      <rect y="52.2" fill="white" height="3.6" x="37.8" stroke="white" id="square" gorn="0.3.0.0" width="3.6" stroke-width="2.16"/>
      <rect y="9" fill="white" height="3.6" x="37.8" stroke="white" id="square" gorn="0.3.0.1" width="3.6" stroke-width="2.16"/>
      <circle fill="white" cx="3.6" cy="3.6" stroke="white" id="connector0pad" gorn="0.3.0.2" stroke-width="2.16" r="1.8"/>
      <circle fill="white" cx="39.6" cy="3.6" stroke="white" id="connector15pad" gorn="0.3.0.3" stroke-width="2.16" r="1.8"/>
      <circle fill="white" cx="3.6" cy="10.8" stroke="white" id="connector1pad" gorn="0.3.0.4" stroke-width="2.16" r="1.8"/>
      <circle fill="white" cx="39.6" cy="10.8" stroke="white" id="connector14pad" gorn="0.3.0.5" stroke-width="2.16" r="1.8"/>
      <circle fill="white" cx="3.6" cy="18" stroke="white" id="connector2pad" gorn="0.3.0.6" stroke-width="2.16" r="1.8"/>
      <circle fill="white" cx="39.6" cy="18" stroke="white" id="connector13pad" gorn="0.3.0.7" stroke-width="2.16" r="1.8"/>
      <circle fill="white" cx="3.6" cy="25.2" stroke="white" id="connector3pad" gorn="0.3.0.8" stroke-width="2.16" r="1.8"/>
      <circle fill="white" cx="39.6" cy="25.2" stroke="white" id="connector12pad" gorn="0.3.0.9" stroke-width="2.16" r="1.8"/>
      <circle fill="white" cx="3.6" cy="32.4" stroke="white" id="connector4pad" gorn="0.3.0.10" stroke-width="2.16" r="1.8"/>
      <circle fill="white" cx="39.6" cy="32.4" stroke="white" id="connector11pad" gorn="0.3.0.11" stroke-width="2.16" r="1.8"/>
      <circle fill="white" cx="3.6" cy="39.6" stroke="white" id="connector5pad" gorn="0.3.0.12" stroke-width="2.16" r="1.8"/>
      <circle fill="white" cx="39.6" cy="39.6" stroke="white" id="connector10pad" gorn="0.3.0.13" stroke-width="2.16" r="1.8"/>
      <circle fill="white" cx="3.6" cy="46.8" stroke="white" id="connector6pad" gorn="0.3.0.14" stroke-width="2.16" r="1.8"/>
      <circle fill="white" cx="39.6" cy="46.8" stroke="white" id="connector9pad" gorn="0.3.0.15" stroke-width="2.16" r="1.8"/>
      <circle fill="white" cx="3.6" cy="54" stroke="white" id="connector7pad" gorn="0.3.0.16" stroke-width="2.16" r="1.8"/>
      <circle fill="white" cx="39.6" cy="54" stroke="white" id="connector8pad" gorn="0.3.0.17" stroke-width="2.16" r="1.8"/>
     </g>
    </g>
   </g>
  </g>
  <g partID="854517600">
   <g transform="translate(197.344,139.104)">
    <g transform="matrix(-1,0,0,-1,0,0)">
     <g id="copper0" gorn="0.3.0">
      <rect y="52.2" fill="white" height="3.6" x="37.8" stroke="white" id="square" gorn="0.3.0.0" width="3.6" stroke-width="2.16"/>
      <rect y="9" fill="white" height="3.6" x="37.8" stroke="white" id="square" gorn="0.3.0.1" width="3.6" stroke-width="2.16"/>
      <circle fill="white" cx="3.6" cy="3.6" stroke="white" id="connector0pad" gorn="0.3.0.2" stroke-width="2.16" r="1.8"/>
      <circle fill="white" cx="39.6" cy="3.6" stroke="white" id="connector15pad" gorn="0.3.0.3" stroke-width="2.16" r="1.8"/>
      <circle fill="white" cx="3.6" cy="10.8" stroke="white" id="connector1pad" gorn="0.3.0.4" stroke-width="2.16" r="1.8"/>
      <circle fill="white" cx="39.6" cy="10.8" stroke="white" id="connector14pad" gorn="0.3.0.5" stroke-width="2.16" r="1.8"/>
      <circle fill="white" cx="3.6" cy="18" stroke="white" id="connector2pad" gorn="0.3.0.6" stroke-width="2.16" r="1.8"/>
      <circle fill="white" cx="39.6" cy="18" stroke="white" id="connector13pad" gorn="0.3.0.7" stroke-width="2.16" r="1.8"/>
      <circle fill="white" cx="3.6" cy="25.2" stroke="white" id="connector3pad" gorn="0.3.0.8" stroke-width="2.16" r="1.8"/>
      <circle fill="white" cx="39.6" cy="25.2" stroke="white" id="connector12pad" gorn="0.3.0.9" stroke-width="2.16" r="1.8"/>
      <circle fill="white" cx="3.6" cy="32.4" stroke="white" id="connector4pad" gorn="0.3.0.10" stroke-width="2.16" r="1.8"/>
      <circle fill="white" cx="39.6" cy="32.4" stroke="white" id="connector11pad" gorn="0.3.0.11" stroke-width="2.16" r="1.8"/>
      <circle fill="white" cx="3.6" cy="39.6" stroke="white" id="connector5pad" gorn="0.3.0.12" stroke-width="2.16" r="1.8"/>
      <circle fill="white" cx="39.6" cy="39.6" stroke="white" id="connector10pad" gorn="0.3.0.13" stroke-width="2.16" r="1.8"/>
      <circle fill="white" cx="3.6" cy="46.8" stroke="white" id="connector6pad" gorn="0.3.0.14" stroke-width="2.16" r="1.8"/>
      <circle fill="white" cx="39.6" cy="46.8" stroke="white" id="connector9pad" gorn="0.3.0.15" stroke-width="2.16" r="1.8"/>
      <circle fill="white" cx="3.6" cy="54" stroke="white" id="connector7pad" gorn="0.3.0.16" stroke-width="2.16" r="1.8"/>
      <circle fill="white" cx="39.6" cy="54" stroke="white" id="connector8pad" gorn="0.3.0.17" stroke-width="2.16" r="1.8"/>
     </g>
    </g>
   </g>
  </g>
  <g partID="854550900">
   <g transform="translate(143.865,64.5969)">
    <g transform="matrix(0,1,-1,0,0,0)">
     <g id="copper0">
      <rect y="5.58" fill="white" height="3.96" x="1.98" stroke="white" id="rect11" width="3.96" stroke-width="2.16"/>
      <circle fill="white" cx="3.96" cy="7.56" stroke="white" id="connector0pin" stroke-width="2.16" r="1.98"/>
      <circle fill="white" cx="11.16" cy="7.56" stroke="white" id="connector1pin" stroke-width="2.16" r="1.98"/>
     </g>
    </g>
   </g>
  </g>
  <g partID="854551010">
   <g transform="translate(125.869,124.299)">
    <g transform="matrix(0,1,-1,0,0,0)">
     <g id="copper0">
      <rect y="5.58" fill="white" height="3.96" x="1.98" stroke="white" id="rect11" width="3.96" stroke-width="2.16"/>
      <circle fill="white" cx="3.96" cy="7.56" stroke="white" id="connector0pin" stroke-width="2.16" r="1.98"/>
      <circle fill="white" cx="11.16" cy="7.56" stroke="white" id="connector1pin" stroke-width="2.16" r="1.98"/>
     </g>
    </g>
   </g>
  </g>
  <g partID="854552430">
   <g transform="translate(90.8034,83.2377)">
    <g transform="matrix(0,-1,1,0,0,0)">
     <g id="copper0">
      <path fill="white" stroke-opacity="1" stroke="white" style="stroke-linecap:round;stroke-linejoin:round;stroke-miterlimit:4;stroke-dasharray:none;stroke-dashoffset:0;display:inline" id="connector1pad" stroke-width="2.16" d="m9,3.60001a1.8,1.8,0,0,1,-3.6,0,1.8,1.8,0,1,1,3.6,0z"/>
      <path fill="white" stroke-opacity="1" stroke="white" style="stroke-linecap:round;stroke-linejoin:round;stroke-miterlimit:4;stroke-dasharray:none;stroke-dashoffset:0;display:inline" id="connector2pad" stroke-width="2.16" d="m16.2,3.60001a1.8,1.8,0,0,1,-3.6,0,1.8,1.8,0,1,1,3.6,0z"/>
     </g>
    </g>
   </g>
  </g>
  <g partID="854556270">
   <g transform="translate(99.5746,101.935)">
    <g id="copper0">
     <circle fill="white" cx="4.752" cy="4.752" stroke="white" id="connector0pad" stroke-width="2.16" r="1.98"/>
     <circle fill="white" cx="18.7266" cy="4.752" stroke="white" id="connector1pad" stroke-width="2.16" r="1.98"/>
    </g>
   </g>
  </g>
  <g partID="854561370">
   <g transform="translate(144.464,18.7946)">
    <g transform="matrix(0,1,-1,0,0,0)">
     <g id="copper0">
      <circle fill="white" cx="6.304" stroke="white" cy="9.926" id="connector0pad" stroke-width="1.62" r="2.291"/>
      <path fill="white" stroke="white" stroke-width="0.72" d="M3.424,7.046l5.76,0l0,5.761l-5.76,0L3.424,7.046zM4.603,9.926c0,0.939,0.762,1.7,1.701,1.7c0.939,0,1.7,-0.761,1.7,-1.7l0,0c0,-0.939,-0.761,-1.701,-1.7,-1.701C5.365,8.225,4.603,8.987,4.603,9.926z"/>
      <circle fill="white" cx="16.224" stroke="white" cy="9.926" id="connector1pad" stroke-width="1.62" r="2.291"/>
      <circle fill="white" cx="26.146" stroke="white" cy="9.926" id="connector2pad" stroke-width="1.62" r="2.291"/>
      <circle fill="white" cx="36.068" stroke="white" cy="9.926" id="connector3pad" stroke-width="1.62" r="2.291"/>
     </g>
    </g>
   </g>
  </g>
  <g partID="854561990">
   <g transform="translate(146.807,81.9873)">
    <g transform="matrix(0,1,-1,0,0,0)">
     <g id="copper0">
      <circle fill="white" cx="6.304" stroke="white" cy="9.926" id="connector0pad" stroke-width="1.62" r="2.291"/>
      <path fill="white" stroke="white" stroke-width="0.72" d="M3.424,7.046l5.76,0l0,5.761l-5.76,0L3.424,7.046zM4.603,9.926c0,0.939,0.762,1.7,1.701,1.7c0.939,0,1.7,-0.761,1.7,-1.7l0,0c0,-0.939,-0.761,-1.701,-1.7,-1.701C5.365,8.225,4.603,8.987,4.603,9.926z"/>
      <circle fill="white" cx="16.224" stroke="white" cy="9.926" id="connector1pad" stroke-width="1.62" r="2.291"/>
      <circle fill="white" cx="26.146" stroke="white" cy="9.926" id="connector2pad" stroke-width="1.62" r="2.291"/>
      <circle fill="white" cx="36.068" stroke="white" cy="9.926" id="connector3pad" stroke-width="1.62" r="2.291"/>
     </g>
    </g>
   </g>
  </g>
 </g>
</svg>
